<svg xmlns="http://www.w3.org/2000/svg" width="14" height="15" viewBox="0 0 14 15">
    <path fill="#333" d="M17.417 8.568l-6.026-5.417a.588.588 0 0 0-.782 0L4.583 8.586A1.723 1.723 0 0 0 4 9.843v6.542A1.684 1.684 0 0 0 5.748 18h3.5a.58.58 0 0 0 .583-.577v-2.884h2.333v2.885a.58.58 0 0 0 .586.576h3.5A1.684 1.684 0 0 0 18 16.387V9.872a1.721 1.721 0 0 0-.583-1.304zm-.583 7.817a.53.53 0 0 1-.583.462h-2.918v-2.885a.58.58 0 0 0-.583-.577h-3.5a.58.58 0 0 0-.583.577v2.885H5.75a.53.53 0 0 1-.583-.462V9.843a.534.534 0 0 1 .181-.4L11 4.357l5.635 5.065a.574.574 0 0 1 .2.45z" transform="translate(-4 -3.002)"/>
</svg>
